<mxfile host="app.diagrams.net" modified="2023-05-14T12:42:51.165Z" agent="5.0 (Windows NT 10.0; Win64; x64) AppleWebKit/537.36 (KHTML, like Gecko) Chrome/113.0.0.0 Safari/537.36" etag="YQfzkXoWS2-Q96wA4-_T" version="21.0.10" type="github">
  <diagram name="페이지-1" id="gV3WdCDkxUE2HrU5QRsD">
    <mxGraphModel dx="1050" dy="573" grid="1" gridSize="10" guides="1" tooltips="1" connect="1" arrows="1" fold="1" page="1" pageScale="1" pageWidth="3300" pageHeight="4681" math="0" shadow="0">
      <root>
        <mxCell id="0" />
        <mxCell id="1" parent="0" />
        <mxCell id="V9OaBVS4aPJJuuTyBFsJ-1" value="START" style="rounded=1;whiteSpace=wrap;html=1;" vertex="1" parent="1">
          <mxGeometry x="410" y="100" width="120" height="60" as="geometry" />
        </mxCell>
        <mxCell id="V9OaBVS4aPJJuuTyBFsJ-2" value="END" style="rounded=1;whiteSpace=wrap;html=1;" vertex="1" parent="1">
          <mxGeometry x="410" y="690" width="120" height="60" as="geometry" />
        </mxCell>
        <mxCell id="V9OaBVS4aPJJuuTyBFsJ-4" style="edgeStyle=orthogonalEdgeStyle;rounded=0;orthogonalLoop=1;jettySize=auto;html=1;" edge="1" parent="1" source="V9OaBVS4aPJJuuTyBFsJ-3">
          <mxGeometry relative="1" as="geometry">
            <mxPoint x="680" y="230" as="targetPoint" />
          </mxGeometry>
        </mxCell>
        <mxCell id="V9OaBVS4aPJJuuTyBFsJ-3" value="중앙에 위치하는가?&lt;br&gt;(전체 화면의 10%이내)" style="rhombus;whiteSpace=wrap;html=1;" vertex="1" parent="1">
          <mxGeometry x="375" y="190" width="190" height="80" as="geometry" />
        </mxCell>
        <mxCell id="V9OaBVS4aPJJuuTyBFsJ-9" value="수평선을 기준으로 위에 &lt;br&gt;존재하는가?" style="rhombus;whiteSpace=wrap;html=1;" vertex="1" parent="1">
          <mxGeometry x="375" y="320" width="190" height="80" as="geometry" />
        </mxCell>
        <mxCell id="V9OaBVS4aPJJuuTyBFsJ-14" value="Servo1 : 시계방향으로 회전&lt;br&gt;Servo2 : 중앙과 떨어진&amp;nbsp;" style="rounded=0;whiteSpace=wrap;html=1;" vertex="1" parent="1">
          <mxGeometry x="695" y="520" width="120" height="60" as="geometry" />
        </mxCell>
        <mxCell id="V9OaBVS4aPJJuuTyBFsJ-15" value="회전했을 때 &lt;br&gt;최대 회전각을 초과하는가?" style="rhombus;whiteSpace=wrap;html=1;" vertex="1" parent="1">
          <mxGeometry x="375" y="510" width="190" height="80" as="geometry" />
        </mxCell>
        <mxCell id="V9OaBVS4aPJJuuTyBFsJ-16" value="회전했을 때 &lt;br&gt;최대 회전각을 초과하는가?" style="rhombus;whiteSpace=wrap;html=1;" vertex="1" parent="1">
          <mxGeometry x="660" y="320" width="190" height="80" as="geometry" />
        </mxCell>
        <mxCell id="V9OaBVS4aPJJuuTyBFsJ-17" value="Servo1 : 반시계방향으로 회전&lt;br&gt;Servo2 : 중앙과 떨어진&amp;nbsp;" style="rounded=0;whiteSpace=wrap;html=1;" vertex="1" parent="1">
          <mxGeometry x="960" y="330" width="120" height="60" as="geometry" />
        </mxCell>
      </root>
    </mxGraphModel>
  </diagram>
</mxfile>
